<?xml version="1.0" encoding="UTF-8" standalone="no"?><svg xmlns="http://www.w3.org/2000/svg" xmlns:xlink="http://www.w3.org/1999/xlink" contentScriptType="application/ecmascript" contentStyleType="text/css" height="277px" preserveAspectRatio="none" style="width:560px;height:277px;background:#FFFFFF;" version="1.1" viewBox="0 0 560 277" width="560px" zoomAndPan="magnify"><defs><filter height="300%" id="finkioh9qjvx6" width="300%" x="-1" y="-1"><feGaussianBlur result="blurOut" stdDeviation="2.0"/><feColorMatrix in="blurOut" result="blurOut2" type="matrix" values="0 0 0 0 0 0 0 0 0 0 0 0 0 0 0 0 0 0 .4 0"/><feOffset dx="4.0" dy="4.0" in="blurOut2" result="blurOut3"/><feBlend in="SourceGraphic" in2="blurOut3" mode="normal"/></filter></defs><g><!--MD5=[ac0b18d112128ae2144f0cce2ae8fceb]
cluster main.java.aggregates--><polygon fill="#FFFFFF" filter="url(#finkioh9qjvx6)" points="16,6,172,6,179,29.6094,543,29.6094,543,270,16,270,16,6" style="stroke:#000000;stroke-width:1.5;"/><line style="stroke:#000000;stroke-width:1.5;" x1="16" x2="179" y1="29.6094" y2="29.6094"/><text fill="#000000" font-family="sans-serif" font-size="14" font-weight="bold" lengthAdjust="spacing" textLength="150" x="20" y="22.5332">main.java.aggregates</text><!--MD5=[914cdf822bf80e984e8ac3bf93b406a5]
class Aggregate--><rect codeLine="10" fill="#FFFFFF" filter="url(#finkioh9qjvx6)" height="75.6719" id="Aggregate" style="stroke:#000000;stroke-width:1.5;" width="115" x="92.5" y="42"/><ellipse cx="119.65" cy="58" fill="#EB937F" rx="11" ry="11" style="stroke:#000000;stroke-width:1.0;"/><path d="M118.5094,58.7969 L118.5094,61.2969 L122.8375,61.2969 L122.8375,60.375 Q122.8375,59.7656 123.0797,59.5 Q123.3219,59.2344 123.6969,59.2344 Q124.0719,59.2344 124.3063,59.5 Q124.5406,59.7656 124.5406,60.375 L124.5406,63 L116.5406,63 Q115.9156,63 115.6578,62.7656 Q115.4,62.5313 115.4,62.1406 Q115.4,61.7656 115.6656,61.5313 Q115.9313,61.2969 116.5406,61.2969 L116.8063,61.2969 L116.8063,54.6406 L116.5406,54.6406 Q115.9156,54.6406 115.6578,54.4063 Q115.4,54.1719 115.4,53.7813 Q115.4,53.4063 115.6578,53.1719 Q115.9156,52.9375 116.5406,52.9375 L124.1656,52.9375 L124.1656,55.5313 Q124.1656,56.1406 123.9391,56.3984 Q123.7125,56.6563 123.3219,56.6563 Q122.9469,56.6563 122.7125,56.3984 Q122.4781,56.1406 122.4781,55.5313 L122.4781,54.6406 L118.5094,54.6406 L118.5094,57.0938 L119.9938,57.0938 Q119.9938,56.4375 120.1188,56.25 Q120.3844,55.8438 120.8531,55.8438 Q121.2281,55.8438 121.4625,56.1016 Q121.6969,56.3594 121.6969,56.9688 L121.6969,58.9375 Q121.6969,59.4844 121.5719,59.6719 Q121.3063,60.0625 120.8531,60.0625 Q120.3844,60.0625 120.1188,59.6563 Q119.9938,59.4688 119.9938,58.7969 L118.5094,58.7969 Z " fill="#000000"/><text fill="#000000" font-family="sans-serif" font-size="12" lengthAdjust="spacing" textLength="56" x="136.35" y="62.9102">Aggregate</text><line style="stroke:#000000;stroke-width:1.5;" x1="93.5" x2="206.5" y1="74" y2="74"/><text fill="#000000" font-family="sans-serif" font-size="11" lengthAdjust="spacing" textLength="78" x="98.5" y="89.4189">CHANNEL_SAT,</text><text fill="#000000" font-family="sans-serif" font-size="11" lengthAdjust="spacing" textLength="103" x="98.5" y="103.2549">SAT_TRANSPONDER</text><line style="stroke:#000000;stroke-width:1.5;" x1="93.5" x2="206.5" y1="109.6719" y2="109.6719"/><!--MD5=[097419eb41b2f77252efca47be1d0638]
class AggregateVisitorFactory--><rect codeLine="15" fill="#FFFFFF" filter="url(#finkioh9qjvx6)" height="61.8359" id="AggregateVisitorFactory" style="stroke:#000000;stroke-width:1.5;" width="284" x="243" y="49"/><ellipse cx="316.25" cy="65" fill="#ADD1B2" rx="11" ry="11" style="stroke:#000000;stroke-width:1.0;"/><path d="M319.0156,60.875 Q319.1719,60.6563 319.3594,60.5469 Q319.5469,60.4375 319.7656,60.4375 Q320.1406,60.4375 320.375,60.6953 Q320.6094,60.9531 320.6094,61.5625 L320.6094,63.0156 Q320.6094,63.625 320.375,63.8906 Q320.1406,64.1563 319.7656,64.1563 Q319.4219,64.1563 319.2188,63.9531 Q319.0156,63.7656 318.9063,63.25 Q318.8594,62.8906 318.6719,62.7031 Q318.3438,62.3281 317.7344,62.1094 Q317.125,61.8906 316.5,61.8906 Q315.7344,61.8906 315.1016,62.2188 Q314.4688,62.5469 313.9766,63.2969 Q313.4844,64.0469 313.4844,65.0781 L313.4844,66.1719 Q313.4844,67.4063 314.375,68.2266 Q315.2656,69.0469 316.8594,69.0469 Q317.7969,69.0469 318.4531,68.7969 Q318.8438,68.6406 319.2656,68.2031 Q319.5313,67.9375 319.6797,67.8594 Q319.8281,67.7813 320.0313,67.7813 Q320.3594,67.7813 320.6172,68.0391 Q320.875,68.2969 320.875,68.6406 Q320.875,68.9844 320.5313,69.3906 Q320.0313,69.9688 319.2344,70.2969 Q318.1563,70.75 316.8594,70.75 Q315.3438,70.75 314.1406,70.125 Q313.1563,69.625 312.4688,68.5547 Q311.7813,67.4844 311.7813,66.2031 L311.7813,65.0469 Q311.7813,63.7188 312.3984,62.5703 Q313.0156,61.4219 314.1094,60.8047 Q315.2031,60.1875 316.4375,60.1875 Q317.1719,60.1875 317.8203,60.3516 Q318.4688,60.5156 319.0156,60.875 Z " fill="#000000"/><text fill="#000000" font-family="sans-serif" font-size="12" lengthAdjust="spacing" textLength="129" x="336.75" y="69.9102">AggregateVisitorFactory</text><line style="stroke:#000000;stroke-width:1.5;" x1="244" x2="526" y1="81" y2="81"/><line style="stroke:#000000;stroke-width:1.5;" x1="244" x2="526" y1="89" y2="89"/><text fill="#000000" font-family="sans-serif" font-size="11" lengthAdjust="spacing" text-decoration="underline" textLength="272" x="249" y="104.4189">iVistitor produceAggregateVisitor(Aggregate aggregate)</text><!--MD5=[e3c8fa850155901a56d34410ab04f61a]
class ChannelsOverSatellitesVisitor--><rect codeLine="19" fill="#FFFFFF" filter="url(#finkioh9qjvx6)" height="75.6719" id="ChannelsOverSatellitesVisitor" style="stroke:#000000;stroke-width:1.5;" width="240" x="32" y="178"/><ellipse cx="66.8" cy="194" fill="#ADD1B2" rx="11" ry="11" style="stroke:#000000;stroke-width:1.0;"/><path d="M69.5656,189.875 Q69.7219,189.6563 69.9094,189.5469 Q70.0969,189.4375 70.3156,189.4375 Q70.6906,189.4375 70.925,189.6953 Q71.1594,189.9531 71.1594,190.5625 L71.1594,192.0156 Q71.1594,192.625 70.925,192.8906 Q70.6906,193.1563 70.3156,193.1563 Q69.9719,193.1563 69.7688,192.9531 Q69.5656,192.7656 69.4563,192.25 Q69.4094,191.8906 69.2219,191.7031 Q68.8938,191.3281 68.2844,191.1094 Q67.675,190.8906 67.05,190.8906 Q66.2844,190.8906 65.6516,191.2188 Q65.0188,191.5469 64.5266,192.2969 Q64.0344,193.0469 64.0344,194.0781 L64.0344,195.1719 Q64.0344,196.4063 64.925,197.2266 Q65.8156,198.0469 67.4094,198.0469 Q68.3469,198.0469 69.0031,197.7969 Q69.3938,197.6406 69.8156,197.2031 Q70.0813,196.9375 70.2297,196.8594 Q70.3781,196.7813 70.5813,196.7813 Q70.9094,196.7813 71.1672,197.0391 Q71.425,197.2969 71.425,197.6406 Q71.425,197.9844 71.0813,198.3906 Q70.5813,198.9688 69.7844,199.2969 Q68.7063,199.75 67.4094,199.75 Q65.8938,199.75 64.6906,199.125 Q63.7063,198.625 63.0188,197.5547 Q62.3313,196.4844 62.3313,195.2031 L62.3313,194.0469 Q62.3313,192.7188 62.9484,191.5703 Q63.5656,190.4219 64.6594,189.8047 Q65.7531,189.1875 66.9875,189.1875 Q67.7219,189.1875 68.3703,189.3516 Q69.0188,189.5156 69.5656,189.875 Z " fill="#000000"/><text fill="#000000" font-family="sans-serif" font-size="12" lengthAdjust="spacing" textLength="164" x="85.2" y="198.9102">ChannelsOverSatellitesVisitor</text><line style="stroke:#000000;stroke-width:1.5;" x1="33" x2="271" y1="210" y2="210"/><ellipse cx="43" cy="221" rx="3" ry="3" style="stroke:#038048;stroke-width:1.0;fill:none;"/><text fill="#000000" font-family="sans-serif" font-size="11" lengthAdjust="spacing" textLength="214" x="52" y="225.4189">HashMap&lt;String, Channel&gt; channels public?</text><ellipse cx="43" cy="234.8359" rx="3" ry="3" style="stroke:#038048;stroke-width:1.0;fill:none;"/><text fill="#000000" font-family="sans-serif" font-size="11" lengthAdjust="spacing" textLength="112" x="52" y="239.2549">Satellite currentSatellite</text><line style="stroke:#000000;stroke-width:1.5;" x1="33" x2="271" y1="245.6719" y2="245.6719"/><!--MD5=[bf7fb326291896b0d1e1109e2e2adc1f]
class SatellitesOverTranspondersVisitor--><rect codeLine="24" fill="#FFFFFF" filter="url(#finkioh9qjvx6)" height="61.8359" id="SatellitesOverTranspondersVisitor" style="stroke:#000000;stroke-width:1.5;" width="220" x="307" y="185"/><ellipse cx="322" cy="201" fill="#ADD1B2" rx="11" ry="11" style="stroke:#000000;stroke-width:1.0;"/><path d="M324.7656,196.875 Q324.9219,196.6563 325.1094,196.5469 Q325.2969,196.4375 325.5156,196.4375 Q325.8906,196.4375 326.125,196.6953 Q326.3594,196.9531 326.3594,197.5625 L326.3594,199.0156 Q326.3594,199.625 326.125,199.8906 Q325.8906,200.1563 325.5156,200.1563 Q325.1719,200.1563 324.9688,199.9531 Q324.7656,199.7656 324.6563,199.25 Q324.6094,198.8906 324.4219,198.7031 Q324.0938,198.3281 323.4844,198.1094 Q322.875,197.8906 322.25,197.8906 Q321.4844,197.8906 320.8516,198.2188 Q320.2188,198.5469 319.7266,199.2969 Q319.2344,200.0469 319.2344,201.0781 L319.2344,202.1719 Q319.2344,203.4063 320.125,204.2266 Q321.0156,205.0469 322.6094,205.0469 Q323.5469,205.0469 324.2031,204.7969 Q324.5938,204.6406 325.0156,204.2031 Q325.2813,203.9375 325.4297,203.8594 Q325.5781,203.7813 325.7813,203.7813 Q326.1094,203.7813 326.3672,204.0391 Q326.625,204.2969 326.625,204.6406 Q326.625,204.9844 326.2813,205.3906 Q325.7813,205.9688 324.9844,206.2969 Q323.9063,206.75 322.6094,206.75 Q321.0938,206.75 319.8906,206.125 Q318.9063,205.625 318.2188,204.5547 Q317.5313,203.4844 317.5313,202.2031 L317.5313,201.0469 Q317.5313,199.7188 318.1484,198.5703 Q318.7656,197.4219 319.8594,196.8047 Q320.9531,196.1875 322.1875,196.1875 Q322.9219,196.1875 323.5703,196.3516 Q324.2188,196.5156 324.7656,196.875 Z " fill="#000000"/><text fill="#000000" font-family="sans-serif" font-size="12" lengthAdjust="spacing" textLength="188" x="336" y="205.9102">SatellitesOverTranspondersVisitor</text><line style="stroke:#000000;stroke-width:1.5;" x1="308" x2="526" y1="217" y2="217"/><ellipse cx="318" cy="228" rx="3" ry="3" style="stroke:#038048;stroke-width:1.0;fill:none;"/><text fill="#000000" font-family="sans-serif" font-size="11" lengthAdjust="spacing" textLength="173" x="327" y="232.4189">HashMap&lt;String, Satellite&gt; satellites</text><line style="stroke:#000000;stroke-width:1.5;" x1="308" x2="526" y1="238.8359" y2="238.8359"/><!--MD5=[8e865e96d64202739d52e5e77d011a69]
link Aggregate to AggregateVisitorFactory--><!--MD5=[1afd9315bbedb2f6c99003978ef93b8b]
link Aggregate to ChannelsOverSatellitesVisitor--><!--MD5=[b803da807efc203015175b2a9b8aae35]
link ChannelsOverSatellitesVisitor to SatellitesOverTranspondersVisitor--><!--MD5=[3223bebddaa503103d156a2653ca9522]
@startuml

skinparam class {
    ArrowColor black
    BorderColor black
    BackgroundColor white
    NoteBorderColor black
}

package main.java.aggregates {
    enum Aggregate {
        CHANNEL_SAT,
        SAT_TRANSPONDER
    }

    class AggregateVisitorFactory {
        {static} iVistitor produceAggregateVisitor(Aggregate aggregate)
    }

    class ChannelsOverSatellitesVisitor {
        +HashMap<String, Channel> channels public?
        +Satellite currentSatellite   
    } 

    class SatellitesOverTranspondersVisitor {
        +HashMap<String, Satellite> satellites
    }
}

@enduml

PlantUML version 1.2022.0(Tue Jan 11 17:16:42 CET 2022)
(GPL source distribution)
Java Runtime: Java(TM) SE Runtime Environment
JVM: Java HotSpot(TM) 64-Bit Server VM
Default Encoding: Cp1252
Language: de
Country: DE
--></g></svg>