<?xml version="1.0" encoding="UTF-8" standalone="no"?><svg xmlns="http://www.w3.org/2000/svg" xmlns:xlink="http://www.w3.org/1999/xlink" contentScriptType="application/ecmascript" contentStyleType="text/css" height="578px" preserveAspectRatio="none" style="width:583px;height:578px;background:#FFFFFF;" version="1.1" viewBox="0 0 583 578" width="583px" zoomAndPan="magnify"><defs><filter height="300%" id="f1i2ux3elrihq6" width="300%" x="-1" y="-1"><feGaussianBlur result="blurOut" stdDeviation="2.0"/><feColorMatrix in="blurOut" result="blurOut2" type="matrix" values="0 0 0 0 0 0 0 0 0 0 0 0 0 0 0 0 0 0 .4 0"/><feOffset dx="4.0" dy="4.0" in="blurOut2" result="blurOut3"/><feBlend in="SourceGraphic" in2="blurOut3" mode="normal"/></filter></defs><g><!--MD5=[4f0d376927536f0da631fa1127b41152]
cluster main.java.tree--><polygon fill="#FFFFFF" filter="url(#f1i2ux3elrihq6)" points="16,6,121,6,128,29.6094,566,29.6094,566,571,16,571,16,6" style="stroke:#000000;stroke-width:1.5;"/><line style="stroke:#000000;stroke-width:1.5;" x1="16" x2="128" y1="29.6094" y2="29.6094"/><text fill="#000000" font-family="sans-serif" font-size="14" font-weight="bold" lengthAdjust="spacing" textLength="99" x="20" y="22.5332">main.java.tree</text><!--MD5=[3fee75583bb7a64f68d843a3c9534ab3]
class Node--><rect codeLine="32" fill="#FFFFFF" filter="url(#f1i2ux3elrihq6)" height="158.6875" id="Node" style="stroke:#000000;stroke-width:1.5;" width="234" x="226" y="233"/><ellipse cx="323.75" cy="249" fill="#ADD1B2" rx="11" ry="11" style="stroke:#000000;stroke-width:1.0;"/><path d="M326.5156,244.875 Q326.6719,244.6563 326.8594,244.5469 Q327.0469,244.4375 327.2656,244.4375 Q327.6406,244.4375 327.875,244.6953 Q328.1094,244.9531 328.1094,245.5625 L328.1094,247.0156 Q328.1094,247.625 327.875,247.8906 Q327.6406,248.1563 327.2656,248.1563 Q326.9219,248.1563 326.7188,247.9531 Q326.5156,247.7656 326.4063,247.25 Q326.3594,246.8906 326.1719,246.7031 Q325.8438,246.3281 325.2344,246.1094 Q324.625,245.8906 324,245.8906 Q323.2344,245.8906 322.6016,246.2188 Q321.9688,246.5469 321.4766,247.2969 Q320.9844,248.0469 320.9844,249.0781 L320.9844,250.1719 Q320.9844,251.4063 321.875,252.2266 Q322.7656,253.0469 324.3594,253.0469 Q325.2969,253.0469 325.9531,252.7969 Q326.3438,252.6406 326.7656,252.2031 Q327.0313,251.9375 327.1797,251.8594 Q327.3281,251.7813 327.5313,251.7813 Q327.8594,251.7813 328.1172,252.0391 Q328.375,252.2969 328.375,252.6406 Q328.375,252.9844 328.0313,253.3906 Q327.5313,253.9688 326.7344,254.2969 Q325.6563,254.75 324.3594,254.75 Q322.8438,254.75 321.6406,254.125 Q320.6563,253.625 319.9688,252.5547 Q319.2813,251.4844 319.2813,250.2031 L319.2813,249.0469 Q319.2813,247.7188 319.8984,246.5703 Q320.5156,245.4219 321.6094,244.8047 Q322.7031,244.1875 323.9375,244.1875 Q324.6719,244.1875 325.3203,244.3516 Q325.9688,244.5156 326.5156,244.875 Z " fill="#000000"/><text fill="#000000" font-family="sans-serif" font-size="12" lengthAdjust="spacing" textLength="30" x="344.25" y="253.9102">Node</text><line style="stroke:#000000;stroke-width:1.5;" x1="227" x2="459" y1="265" y2="265"/><rect fill="none" height="6" style="stroke:#C82930;stroke-width:1.0;" width="6" x="234" y="273"/><text fill="#000000" font-family="sans-serif" font-size="11" lengthAdjust="spacing" textLength="129" x="246" y="280.4189">ArrayList&lt;Node&gt; _children</text><rect fill="none" height="6" style="stroke:#C82930;stroke-width:1.0;" width="6" x="234" y="286.8359"/><text fill="#000000" font-family="sans-serif" font-size="11" lengthAdjust="spacing" textLength="120" x="246" y="294.2549">NodeType _childrenType</text><line style="stroke:#000000;stroke-width:1.5;" x1="227" x2="459" y1="300.6719" y2="300.6719"/><ellipse cx="237" cy="311.6719" fill="#84BE84" rx="3" ry="3" style="stroke:#038048;stroke-width:1.0;"/><text fill="#000000" font-family="sans-serif" font-size="11" lengthAdjust="spacing" textLength="147" x="246" y="316.0908">ArrayList&lt;Node&gt; getChildren()</text><ellipse cx="237" cy="325.5078" fill="#84BE84" rx="3" ry="3" style="stroke:#038048;stroke-width:1.0;"/><text fill="#000000" font-family="sans-serif" font-size="11" lengthAdjust="spacing" textLength="208" x="246" y="329.9268">void setChildren(ArrayList&lt;Node&gt; children)</text><ellipse cx="237" cy="339.3438" fill="#84BE84" rx="3" ry="3" style="stroke:#038048;stroke-width:1.0;"/><text fill="#000000" font-family="sans-serif" font-size="11" lengthAdjust="spacing" textLength="94" x="246" y="343.7627">void clearChildren()</text><ellipse cx="237" cy="353.1797" fill="#84BE84" rx="3" ry="3" style="stroke:#038048;stroke-width:1.0;"/><text fill="#000000" font-family="sans-serif" font-size="11" lengthAdjust="spacing" textLength="138" x="246" y="357.5986">void addChildren(Node child)</text><ellipse cx="237" cy="367.0156" fill="#84BE84" rx="3" ry="3" style="stroke:#038048;stroke-width:1.0;"/><text fill="#000000" font-family="sans-serif" font-size="11" font-style="italic" lengthAdjust="spacing" textLength="100" x="246" y="371.4346">NodeType getType()</text><ellipse cx="237" cy="380.8516" fill="#84BE84" rx="3" ry="3" style="stroke:#038048;stroke-width:1.0;"/><text fill="#000000" font-family="sans-serif" font-size="11" font-style="italic" lengthAdjust="spacing" textLength="135" x="246" y="385.2705">Node accept(iVistor visitor)</text><!--MD5=[9cd4ea4043f77e45117212c3febb69a6]
class NodeType--><rect codeLine="13" fill="#FFFFFF" filter="url(#f1i2ux3elrihq6)" height="103.3438" id="NodeType" style="stroke:#000000;stroke-width:1.5;" width="91" x="220.5" y="452"/><ellipse cx="236.85" cy="468" fill="#EB937F" rx="11" ry="11" style="stroke:#000000;stroke-width:1.0;"/><path d="M235.7094,468.7969 L235.7094,471.2969 L240.0375,471.2969 L240.0375,470.375 Q240.0375,469.7656 240.2797,469.5 Q240.5219,469.2344 240.8969,469.2344 Q241.2719,469.2344 241.5063,469.5 Q241.7406,469.7656 241.7406,470.375 L241.7406,473 L233.7406,473 Q233.1156,473 232.8578,472.7656 Q232.6,472.5313 232.6,472.1406 Q232.6,471.7656 232.8656,471.5313 Q233.1313,471.2969 233.7406,471.2969 L234.0063,471.2969 L234.0063,464.6406 L233.7406,464.6406 Q233.1156,464.6406 232.8578,464.4063 Q232.6,464.1719 232.6,463.7813 Q232.6,463.4063 232.8578,463.1719 Q233.1156,462.9375 233.7406,462.9375 L241.3656,462.9375 L241.3656,465.5313 Q241.3656,466.1406 241.1391,466.3984 Q240.9125,466.6563 240.5219,466.6563 Q240.1469,466.6563 239.9125,466.3984 Q239.6781,466.1406 239.6781,465.5313 L239.6781,464.6406 L235.7094,464.6406 L235.7094,467.0938 L237.1938,467.0938 Q237.1938,466.4375 237.3188,466.25 Q237.5844,465.8438 238.0531,465.8438 Q238.4281,465.8438 238.6625,466.1016 Q238.8969,466.3594 238.8969,466.9688 L238.8969,468.9375 Q238.8969,469.4844 238.7719,469.6719 Q238.5063,470.0625 238.0531,470.0625 Q237.5844,470.0625 237.3188,469.6563 Q237.1938,469.4688 237.1938,468.7969 L235.7094,468.7969 Z " fill="#000000"/><text fill="#000000" font-family="sans-serif" font-size="12" lengthAdjust="spacing" textLength="56" x="251.15" y="472.9102">NodeType</text><line style="stroke:#000000;stroke-width:1.5;" x1="221.5" x2="310.5" y1="484" y2="484"/><text fill="#000000" font-family="sans-serif" font-size="11" lengthAdjust="spacing" textLength="56" x="226.5" y="499.4189">SATTELITE,</text><text fill="#000000" font-family="sans-serif" font-size="11" lengthAdjust="spacing" textLength="79" x="226.5" y="513.2549">TRANSPONDER,</text><text fill="#000000" font-family="sans-serif" font-size="11" lengthAdjust="spacing" textLength="51" x="226.5" y="527.0908">CHANNEL,</text><text fill="#000000" font-family="sans-serif" font-size="11" lengthAdjust="spacing" textLength="29" x="226.5" y="540.9268">ROOT</text><line style="stroke:#000000;stroke-width:1.5;" x1="221.5" x2="310.5" y1="547.3438" y2="547.3438"/><!--MD5=[f6516cf320c6f29c8f5b7f891cd14058]
class Root--><rect fill="#FFFFFF" filter="url(#f1i2ux3elrihq6)" height="48" id="Root" style="stroke:#000000;stroke-width:1.5;" width="58" x="349" y="83.5"/><ellipse cx="364" cy="99.5" fill="#ADD1B2" rx="11" ry="11" style="stroke:#000000;stroke-width:1.0;"/><path d="M366.7656,95.375 Q366.9219,95.1563 367.1094,95.0469 Q367.2969,94.9375 367.5156,94.9375 Q367.8906,94.9375 368.125,95.1953 Q368.3594,95.4531 368.3594,96.0625 L368.3594,97.5156 Q368.3594,98.125 368.125,98.3906 Q367.8906,98.6563 367.5156,98.6563 Q367.1719,98.6563 366.9688,98.4531 Q366.7656,98.2656 366.6563,97.75 Q366.6094,97.3906 366.4219,97.2031 Q366.0938,96.8281 365.4844,96.6094 Q364.875,96.3906 364.25,96.3906 Q363.4844,96.3906 362.8516,96.7188 Q362.2188,97.0469 361.7266,97.7969 Q361.2344,98.5469 361.2344,99.5781 L361.2344,100.6719 Q361.2344,101.9063 362.125,102.7266 Q363.0156,103.5469 364.6094,103.5469 Q365.5469,103.5469 366.2031,103.2969 Q366.5938,103.1406 367.0156,102.7031 Q367.2813,102.4375 367.4297,102.3594 Q367.5781,102.2813 367.7813,102.2813 Q368.1094,102.2813 368.3672,102.5391 Q368.625,102.7969 368.625,103.1406 Q368.625,103.4844 368.2813,103.8906 Q367.7813,104.4688 366.9844,104.7969 Q365.9063,105.25 364.6094,105.25 Q363.0938,105.25 361.8906,104.625 Q360.9063,104.125 360.2188,103.0547 Q359.5313,101.9844 359.5313,100.7031 L359.5313,99.5469 Q359.5313,98.2188 360.1484,97.0703 Q360.7656,95.9219 361.8594,95.3047 Q362.9531,94.6875 364.1875,94.6875 Q364.9219,94.6875 365.5703,94.8516 Q366.2188,95.0156 366.7656,95.375 Z " fill="#000000"/><text fill="#000000" font-family="sans-serif" font-size="12" lengthAdjust="spacing" textLength="26" x="378" y="104.4102">Root</text><line style="stroke:#000000;stroke-width:1.5;" x1="350" x2="406" y1="115.5" y2="115.5"/><line style="stroke:#000000;stroke-width:1.5;" x1="350" x2="406" y1="123.5" y2="123.5"/><!--MD5=[1e4e6ac1845d89d680410515caa0c0ac]
class Channel--><rect codeLine="63" fill="#FFFFFF" filter="url(#f1i2ux3elrihq6)" height="103.3438" id="Channel" style="stroke:#000000;stroke-width:1.5;" width="107" x="442.5" y="56"/><ellipse cx="470.1" cy="72" fill="#ADD1B2" rx="11" ry="11" style="stroke:#000000;stroke-width:1.0;"/><path d="M472.8656,67.875 Q473.0219,67.6563 473.2094,67.5469 Q473.3969,67.4375 473.6156,67.4375 Q473.9906,67.4375 474.225,67.6953 Q474.4594,67.9531 474.4594,68.5625 L474.4594,70.0156 Q474.4594,70.625 474.225,70.8906 Q473.9906,71.1563 473.6156,71.1563 Q473.2719,71.1563 473.0688,70.9531 Q472.8656,70.7656 472.7563,70.25 Q472.7094,69.8906 472.5219,69.7031 Q472.1938,69.3281 471.5844,69.1094 Q470.975,68.8906 470.35,68.8906 Q469.5844,68.8906 468.9516,69.2188 Q468.3188,69.5469 467.8266,70.2969 Q467.3344,71.0469 467.3344,72.0781 L467.3344,73.1719 Q467.3344,74.4063 468.225,75.2266 Q469.1156,76.0469 470.7094,76.0469 Q471.6469,76.0469 472.3031,75.7969 Q472.6938,75.6406 473.1156,75.2031 Q473.3813,74.9375 473.5297,74.8594 Q473.6781,74.7813 473.8813,74.7813 Q474.2094,74.7813 474.4672,75.0391 Q474.725,75.2969 474.725,75.6406 Q474.725,75.9844 474.3813,76.3906 Q473.8813,76.9688 473.0844,77.2969 Q472.0063,77.75 470.7094,77.75 Q469.1938,77.75 467.9906,77.125 Q467.0063,76.625 466.3188,75.5547 Q465.6313,74.4844 465.6313,73.2031 L465.6313,72.0469 Q465.6313,70.7188 466.2484,69.5703 Q466.8656,68.4219 467.9594,67.8047 Q469.0531,67.1875 470.2875,67.1875 Q471.0219,67.1875 471.6703,67.3516 Q472.3188,67.5156 472.8656,67.875 Z " fill="#000000"/><text fill="#000000" font-family="sans-serif" font-size="12" lengthAdjust="spacing" textLength="47" x="486.9" y="76.9102">Channel</text><line style="stroke:#000000;stroke-width:1.5;" x1="443.5" x2="548.5" y1="88" y2="88"/><rect fill="none" height="6" style="stroke:#C82930;stroke-width:1.0;" width="6" x="450.5" y="96"/><text fill="#000000" font-family="sans-serif" font-size="11" lengthAdjust="spacing" textLength="34" x="462.5" y="103.4189">int _sid</text><rect fill="none" height="6" style="stroke:#C82930;stroke-width:1.0;" width="6" x="450.5" y="109.8359"/><text fill="#000000" font-family="sans-serif" font-size="11" lengthAdjust="spacing" textLength="63" x="462.5" y="117.2549">String _name</text><line style="stroke:#000000;stroke-width:1.5;" x1="443.5" x2="548.5" y1="123.6719" y2="123.6719"/><ellipse cx="453.5" cy="134.6719" fill="#84BE84" rx="3" ry="3" style="stroke:#038048;stroke-width:1.0;"/><text fill="#000000" font-family="sans-serif" font-size="11" lengthAdjust="spacing" textLength="81" x="462.5" y="139.0908">String getName()</text><ellipse cx="453.5" cy="148.5078" fill="#84BE84" rx="3" ry="3" style="stroke:#038048;stroke-width:1.0;"/><text fill="#000000" font-family="sans-serif" font-size="11" lengthAdjust="spacing" textLength="52" x="462.5" y="152.9268">int getSid()</text><!--MD5=[39a9b949d1787538902e1dfaac894da1]
class Satellite--><rect codeLine="55" fill="#FFFFFF" filter="url(#f1i2ux3elrihq6)" height="103.3438" id="Satellite" style="stroke:#000000;stroke-width:1.5;" width="111" x="202.5" y="56"/><ellipse cx="233.25" cy="72" fill="#ADD1B2" rx="11" ry="11" style="stroke:#000000;stroke-width:1.0;"/><path d="M236.0156,67.875 Q236.1719,67.6563 236.3594,67.5469 Q236.5469,67.4375 236.7656,67.4375 Q237.1406,67.4375 237.375,67.6953 Q237.6094,67.9531 237.6094,68.5625 L237.6094,70.0156 Q237.6094,70.625 237.375,70.8906 Q237.1406,71.1563 236.7656,71.1563 Q236.4219,71.1563 236.2188,70.9531 Q236.0156,70.7656 235.9063,70.25 Q235.8594,69.8906 235.6719,69.7031 Q235.3438,69.3281 234.7344,69.1094 Q234.125,68.8906 233.5,68.8906 Q232.7344,68.8906 232.1016,69.2188 Q231.4688,69.5469 230.9766,70.2969 Q230.4844,71.0469 230.4844,72.0781 L230.4844,73.1719 Q230.4844,74.4063 231.375,75.2266 Q232.2656,76.0469 233.8594,76.0469 Q234.7969,76.0469 235.4531,75.7969 Q235.8438,75.6406 236.2656,75.2031 Q236.5313,74.9375 236.6797,74.8594 Q236.8281,74.7813 237.0313,74.7813 Q237.3594,74.7813 237.6172,75.0391 Q237.875,75.2969 237.875,75.6406 Q237.875,75.9844 237.5313,76.3906 Q237.0313,76.9688 236.2344,77.2969 Q235.1563,77.75 233.8594,77.75 Q232.3438,77.75 231.1406,77.125 Q230.1563,76.625 229.4688,75.5547 Q228.7813,74.4844 228.7813,73.2031 L228.7813,72.0469 Q228.7813,70.7188 229.3984,69.5703 Q230.0156,68.4219 231.1094,67.8047 Q232.2031,67.1875 233.4375,67.1875 Q234.1719,67.1875 234.8203,67.3516 Q235.4688,67.5156 236.0156,67.875 Z " fill="#000000"/><text fill="#000000" font-family="sans-serif" font-size="12" lengthAdjust="spacing" textLength="44" x="250.75" y="76.9102">Satellite</text><line style="stroke:#000000;stroke-width:1.5;" x1="203.5" x2="312.5" y1="88" y2="88"/><rect fill="none" height="6" style="stroke:#C82930;stroke-width:1.0;" width="6" x="210.5" y="96"/><text fill="#000000" font-family="sans-serif" font-size="11" lengthAdjust="spacing" textLength="63" x="222.5" y="103.4189">String _name</text><rect fill="none" height="6" style="stroke:#C82930;stroke-width:1.0;" width="6" x="210.5" y="109.8359"/><text fill="#000000" font-family="sans-serif" font-size="11" lengthAdjust="spacing" textLength="66" x="222.5" y="117.2549">String _orbital</text><line style="stroke:#000000;stroke-width:1.5;" x1="203.5" x2="312.5" y1="123.6719" y2="123.6719"/><ellipse cx="213.5" cy="134.6719" fill="#84BE84" rx="3" ry="3" style="stroke:#038048;stroke-width:1.0;"/><text fill="#000000" font-family="sans-serif" font-size="11" lengthAdjust="spacing" textLength="85" x="222.5" y="139.0908">String getOrbital()</text><ellipse cx="213.5" cy="148.5078" fill="#84BE84" rx="3" ry="3" style="stroke:#038048;stroke-width:1.0;"/><text fill="#000000" font-family="sans-serif" font-size="11" lengthAdjust="spacing" textLength="81" x="222.5" y="152.9268">String getName()</text><!--MD5=[4a714afb4c2a0a45f6168593582e687f]
class Transponder--><rect codeLine="44" fill="#FFFFFF" filter="url(#f1i2ux3elrihq6)" height="131.0156" id="Transponder" style="stroke:#000000;stroke-width:1.5;" width="135" x="32.5" y="42"/><ellipse cx="61.9" cy="58" fill="#ADD1B2" rx="11" ry="11" style="stroke:#000000;stroke-width:1.0;"/><path d="M64.6656,53.875 Q64.8219,53.6563 65.0094,53.5469 Q65.1969,53.4375 65.4156,53.4375 Q65.7906,53.4375 66.025,53.6953 Q66.2594,53.9531 66.2594,54.5625 L66.2594,56.0156 Q66.2594,56.625 66.025,56.8906 Q65.7906,57.1563 65.4156,57.1563 Q65.0719,57.1563 64.8688,56.9531 Q64.6656,56.7656 64.5563,56.25 Q64.5094,55.8906 64.3219,55.7031 Q63.9938,55.3281 63.3844,55.1094 Q62.775,54.8906 62.15,54.8906 Q61.3844,54.8906 60.7516,55.2188 Q60.1188,55.5469 59.6266,56.2969 Q59.1344,57.0469 59.1344,58.0781 L59.1344,59.1719 Q59.1344,60.4063 60.025,61.2266 Q60.9156,62.0469 62.5094,62.0469 Q63.4469,62.0469 64.1031,61.7969 Q64.4938,61.6406 64.9156,61.2031 Q65.1813,60.9375 65.3297,60.8594 Q65.4781,60.7813 65.6813,60.7813 Q66.0094,60.7813 66.2672,61.0391 Q66.525,61.2969 66.525,61.6406 Q66.525,61.9844 66.1813,62.3906 Q65.6813,62.9688 64.8844,63.2969 Q63.8063,63.75 62.5094,63.75 Q60.9938,63.75 59.7906,63.125 Q58.8063,62.625 58.1188,61.5547 Q57.4313,60.4844 57.4313,59.2031 L57.4313,58.0469 Q57.4313,56.7188 58.0484,55.5703 Q58.6656,54.4219 59.7594,53.8047 Q60.8531,53.1875 62.0875,53.1875 Q62.8219,53.1875 63.4703,53.3516 Q64.1188,53.5156 64.6656,53.875 Z " fill="#000000"/><text fill="#000000" font-family="sans-serif" font-size="12" lengthAdjust="spacing" textLength="71" x="79.1" y="62.9102">Transponder</text><line style="stroke:#000000;stroke-width:1.5;" x1="33.5" x2="166.5" y1="74" y2="74"/><rect fill="none" height="6" style="stroke:#C82930;stroke-width:1.0;" width="6" x="40.5" y="82"/><text fill="#000000" font-family="sans-serif" font-size="11" lengthAdjust="spacing" textLength="92" x="52.5" y="89.4189">String _polarisation</text><rect fill="none" height="6" style="stroke:#C82930;stroke-width:1.0;" width="6" x="40.5" y="95.8359"/><text fill="#000000" font-family="sans-serif" font-size="11" lengthAdjust="spacing" textLength="70" x="52.5" y="103.2549">int _frequency</text><rect fill="none" height="6" style="stroke:#C82930;stroke-width:1.0;" width="6" x="40.5" y="109.6719"/><text fill="#000000" font-family="sans-serif" font-size="11" lengthAdjust="spacing" textLength="84" x="52.5" y="117.0908">String _symmetry</text><line style="stroke:#000000;stroke-width:1.5;" x1="33.5" x2="166.5" y1="123.5078" y2="123.5078"/><ellipse cx="43.5" cy="134.5078" fill="#84BE84" rx="3" ry="3" style="stroke:#038048;stroke-width:1.0;"/><text fill="#000000" font-family="sans-serif" font-size="11" lengthAdjust="spacing" textLength="109" x="52.5" y="138.9268">String getPolarisation()</text><ellipse cx="43.5" cy="148.3438" fill="#84BE84" rx="3" ry="3" style="stroke:#038048;stroke-width:1.0;"/><text fill="#000000" font-family="sans-serif" font-size="11" lengthAdjust="spacing" textLength="92" x="52.5" y="152.7627">int getPolarisation()</text><ellipse cx="43.5" cy="162.1797" fill="#84BE84" rx="3" ry="3" style="stroke:#038048;stroke-width:1.0;"/><text fill="#000000" font-family="sans-serif" font-size="11" lengthAdjust="spacing" textLength="102" x="52.5" y="166.5986">String getSymmetry()</text><!--MD5=[0cba61a3b75493c9bcabc3e0ae49157e]
reverse link Root to Node--><path codeLine="21" d="M370.55,151.74 C366.49,175.25 361.35,205.07 356.61,232.56 " fill="none" id="Root-backto-Node" style="stroke:#000000;stroke-width:1.0;"/><polygon fill="none" points="363.69,150.31,373.99,131.79,377.49,152.69,363.69,150.31" style="stroke:#000000;stroke-width:1.0;"/><!--MD5=[b71482f868fe25c55b86eea112485b0c]
reverse link Channel to Node--><path codeLine="22" d="M445.54,175.45 C431.75,193.74 416.68,213.74 402.44,232.64 " fill="none" id="Channel-backto-Node" style="stroke:#000000;stroke-width:1.0;"/><polygon fill="none" points="440.16,170.96,457.79,159.2,451.34,179.39,440.16,170.96" style="stroke:#000000;stroke-width:1.0;"/><!--MD5=[71ec199422c8c031be52cc1077fa7b95]
link Channel to NodeType--><path codeLine="23" d="M506.75,159.19 C516.66,219.77 523.73,321.73 478,392 C443.33,445.28 374.25,474.36 324.36,489.13 " fill="none" id="Channel-to-NodeType" style="stroke:#000000;stroke-width:1.0;"/><polygon fill="#FFFFFF" points="311.8,492.66,318.658,494.8889,323.3531,489.4156,316.4951,487.1868,311.8,492.66" style="stroke:#000000;stroke-width:1.0;"/><!--MD5=[343e19e564b150b9426bb5cb97710eb0]
reverse link Satellite to Node--><path codeLine="24" d="M286.97,177.7 C294.38,195.38 302.39,214.51 309.98,232.64 " fill="none" id="Satellite-backto-Node" style="stroke:#000000;stroke-width:1.0;"/><polygon fill="none" points="280.5,180.35,279.23,159.2,293.41,174.95,280.5,180.35" style="stroke:#000000;stroke-width:1.0;"/><!--MD5=[ea26fe497c9cdab0421f6cbd16b700d0]
link Satellite to NodeType--><path codeLine="25" d="M233.01,159.3 C223.48,181.38 213.76,207.9 209,233 C195.83,302.43 192.33,323.33 209,392 C212.96,408.3 219.77,424.89 227.33,440.09 " fill="none" id="Satellite-to-NodeType" style="stroke:#000000;stroke-width:1.0;"/><polygon fill="#FFFFFF" points="233.52,451.95,234.2912,444.7803,227.9697,441.3107,227.1984,448.4805,233.52,451.95" style="stroke:#000000;stroke-width:1.0;"/><!--MD5=[f703f01646c65252dc838f71dfd9afe2]
reverse link Transponder to Node--><path codeLine="26" d="M183.13,177.94 C204.3,195.63 227.21,214.77 248.89,232.88 " fill="none" id="Transponder-backto-Node" style="stroke:#000000;stroke-width:1.0;"/><polygon fill="none" points="178.55,183.24,167.69,165.05,187.53,172.5,178.55,183.24" style="stroke:#000000;stroke-width:1.0;"/><!--MD5=[66d9b4a74ea420315455afd06778b1a5]
link Transponder to NodeType--><path codeLine="27" d="M114.31,173.12 C128.73,232.01 153.87,320.46 189,392 C197.17,408.64 207.66,425.56 218.25,441.01 " fill="none" id="Transponder-to-NodeType" style="stroke:#000000;stroke-width:1.0;"/><polygon fill="#FFFFFF" points="225.95,451.96,225.7719,444.7511,219.049,442.1429,219.2271,449.3518,225.95,451.96" style="stroke:#000000;stroke-width:1.0;"/><!--MD5=[b68a3125022849e9ecb9a46247b08b03]
link Node to NodeType--><path codeLine="28" d="M311.01,392.01 C304.59,407.78 297.92,424.16 291.74,439.32 " fill="none" id="Node-to-NodeType" style="stroke:#000000;stroke-width:1.0;"/><polygon fill="#FFFFFF" points="286.68,451.74,292.6504,447.696,291.2138,440.6295,285.2434,444.6734,286.68,451.74" style="stroke:#000000;stroke-width:1.0;"/><!--MD5=[0b89124918a126794310c788156348dc]
@startuml

skinparam class {
    ArrowColor black
    BorderColor black
    BackgroundColor white
    NoteBorderColor black
}

package "main.java.tree" {

abstract class Node

enum NodeType {
    SATTELITE,
    TRANSPONDER,
    CHANNEL,
    ROOT
}


Root <|- - Node
Channel <|- - Node
Channel - -o NodeType
Satellite <|- - Node
Satellite - -o NodeType
Transponder <|- - Node
Transponder - -o NodeType
Node - -o NodeType



class Node {
 -ArrayList<Node> _children
 -NodeType _childrenType

 +ArrayList<Node> getChildren()
 +void setChildren(ArrayList<Node> children)
 +void clearChildren()
 +void addChildren(Node child)
 {abstract} +NodeType getType()
 {abstract} +Node accept(iVistor visitor)
}

class Transponder {
-String _polarisation
-int _frequency
-String _symmetry

+String getPolarisation()
+int getPolarisation()
+String getSymmetry()

}

class Satellite {
    -String _name
    -String _orbital

    +String getOrbital()
    +String getName()
}

class Channel{
    -int _sid
    -String _name

    +String getName()
    +int getSid()

}

}




@enduml

PlantUML version 1.2022.0(Tue Jan 11 17:16:42 CET 2022)
(GPL source distribution)
Java Runtime: Java(TM) SE Runtime Environment
JVM: Java HotSpot(TM) 64-Bit Server VM
Default Encoding: Cp1252
Language: de
Country: DE
--></g></svg>