<?xml version="1.0" encoding="UTF-8" standalone="no"?><svg xmlns="http://www.w3.org/2000/svg" xmlns:xlink="http://www.w3.org/1999/xlink" contentScriptType="application/ecmascript" contentStyleType="text/css" height="277px" preserveAspectRatio="none" style="width:776px;height:277px;background:#FFFFFF;" version="1.1" viewBox="0 0 776 277" width="776px" zoomAndPan="magnify"><defs><filter height="300%" id="fpkoso4dwavbl" width="300%" x="-1" y="-1"><feGaussianBlur result="blurOut" stdDeviation="2.0"/><feColorMatrix in="blurOut" result="blurOut2" type="matrix" values="0 0 0 0 0 0 0 0 0 0 0 0 0 0 0 0 0 0 .4 0"/><feOffset dx="4.0" dy="4.0" in="blurOut2" result="blurOut3"/><feBlend in="SourceGraphic" in2="blurOut3" mode="normal"/></filter></defs><g><!--MD5=[72cc70f4403d00c916d0f3536961d40e]
cluster main.java.output--><polygon fill="#FFFFFF" filter="url(#fpkoso4dwavbl)" points="16,6,138,6,145,29.6094,759,29.6094,759,270,16,270,16,6" style="stroke:#000000;stroke-width:1.5;"/><line style="stroke:#000000;stroke-width:1.5;" x1="16" x2="145" y1="29.6094" y2="29.6094"/><text fill="#000000" font-family="sans-serif" font-size="14" font-weight="bold" lengthAdjust="spacing" textLength="116" x="20" y="22.5332">main.java.output</text><!--MD5=[f144808e0e29279a3117e64f7a82a4df]
class Format--><rect codeLine="10" fill="#FFFFFF" filter="url(#fpkoso4dwavbl)" height="75.6719" id="Format" style="stroke:#000000;stroke-width:1.5;" width="71" x="671.5" y="49"/><ellipse cx="686.5" cy="65" fill="#EB937F" rx="11" ry="11" style="stroke:#000000;stroke-width:1.0;"/><path d="M685.3594,65.7969 L685.3594,68.2969 L689.6875,68.2969 L689.6875,67.375 Q689.6875,66.7656 689.9297,66.5 Q690.1719,66.2344 690.5469,66.2344 Q690.9219,66.2344 691.1563,66.5 Q691.3906,66.7656 691.3906,67.375 L691.3906,70 L683.3906,70 Q682.7656,70 682.5078,69.7656 Q682.25,69.5313 682.25,69.1406 Q682.25,68.7656 682.5156,68.5313 Q682.7813,68.2969 683.3906,68.2969 L683.6563,68.2969 L683.6563,61.6406 L683.3906,61.6406 Q682.7656,61.6406 682.5078,61.4063 Q682.25,61.1719 682.25,60.7813 Q682.25,60.4063 682.5078,60.1719 Q682.7656,59.9375 683.3906,59.9375 L691.0156,59.9375 L691.0156,62.5313 Q691.0156,63.1406 690.7891,63.3984 Q690.5625,63.6563 690.1719,63.6563 Q689.7969,63.6563 689.5625,63.3984 Q689.3281,63.1406 689.3281,62.5313 L689.3281,61.6406 L685.3594,61.6406 L685.3594,64.0938 L686.8438,64.0938 Q686.8438,63.4375 686.9688,63.25 Q687.2344,62.8438 687.7031,62.8438 Q688.0781,62.8438 688.3125,63.1016 Q688.5469,63.3594 688.5469,63.9688 L688.5469,65.9375 Q688.5469,66.4844 688.4219,66.6719 Q688.1563,67.0625 687.7031,67.0625 Q687.2344,67.0625 686.9688,66.6563 Q686.8438,66.4688 686.8438,65.7969 L685.3594,65.7969 Z " fill="#000000"/><text fill="#000000" font-family="sans-serif" font-size="12" lengthAdjust="spacing" textLength="39" x="700.5" y="69.9102">Format</text><line style="stroke:#000000;stroke-width:1.5;" x1="672.5" x2="741.5" y1="81" y2="81"/><text fill="#000000" font-family="sans-serif" font-size="11" lengthAdjust="spacing" textLength="24" x="677.5" y="96.4189">XML,</text><text fill="#000000" font-family="sans-serif" font-size="11" lengthAdjust="spacing" textLength="27" x="677.5" y="110.2549">JSON</text><line style="stroke:#000000;stroke-width:1.5;" x1="672.5" x2="741.5" y1="116.6719" y2="116.6719"/><!--MD5=[a4e995579d3e1a02ba1f7a512b8493dc]
class iOutputVisitor--><rect codeLine="15" fill="#FFFFFF" filter="url(#fpkoso4dwavbl)" height="89.5078" id="iOutputVisitor" style="stroke:#000000;stroke-width:1.5;" width="343" x="293.5" y="42"/><ellipse cx="424.25" cy="58" fill="#B4A7E5" rx="11" ry="11" style="stroke:#000000;stroke-width:1.0;"/><path d="M425.2031,54.6406 L425.2031,61.2969 L426.9219,61.2969 Q427.5313,61.2969 427.7969,61.5313 Q428.0625,61.7656 428.0625,62.1563 Q428.0625,62.5313 427.7969,62.7656 Q427.5313,63 426.9219,63 L421.7813,63 Q421.1719,63 420.9063,62.7656 Q420.6406,62.5313 420.6406,62.1406 Q420.6406,61.7656 420.9063,61.5313 Q421.1719,61.2969 421.7813,61.2969 L423.5,61.2969 L423.5,54.6406 L421.7813,54.6406 Q421.1719,54.6406 420.9063,54.4063 Q420.6406,54.1719 420.6406,53.7813 Q420.6406,53.4063 420.9063,53.1719 Q421.1719,52.9375 421.7813,52.9375 L426.9219,52.9375 Q427.5313,52.9375 427.7969,53.1719 Q428.0625,53.4063 428.0625,53.7813 Q428.0625,54.1719 427.7969,54.4063 Q427.5313,54.6406 426.9219,54.6406 L425.2031,54.6406 Z " fill="#000000"/><text fill="#000000" font-family="sans-serif" font-size="12" font-style="italic" lengthAdjust="spacing" textLength="73" x="444.75" y="62.9102">iOutputVisitor</text><line style="stroke:#000000;stroke-width:1.5;" x1="294.5" x2="635.5" y1="74" y2="74"/><line style="stroke:#000000;stroke-width:1.5;" x1="294.5" x2="635.5" y1="82" y2="82"/><text fill="#000000" font-family="sans-serif" font-size="11" lengthAdjust="spacing" textLength="210" x="299.5" y="97.4189">void addAttribute(String name, String value)</text><text fill="#000000" font-family="sans-serif" font-size="11" lengthAdjust="spacing" textLength="331" x="299.5" y="111.2549">void addChildren(ArrayList&lt;Node&gt; children, NodeType childrenType)</text><text fill="#000000" font-family="sans-serif" font-size="11" lengthAdjust="spacing" textLength="110" x="299.5" y="125.0908">String getParsedData()</text><!--MD5=[8cfa18c73542a08657a07e45a52d4bc7]
class JsonOutputVisitor--><rect codeLine="21" fill="#FFFFFF" filter="url(#fpkoso4dwavbl)" height="61.8359" id="JsonOutputVisitor" style="stroke:#000000;stroke-width:1.5;" width="198" x="227" y="192"/><ellipse cx="273.25" cy="208" fill="#ADD1B2" rx="11" ry="11" style="stroke:#000000;stroke-width:1.0;"/><path d="M276.0156,203.875 Q276.1719,203.6563 276.3594,203.5469 Q276.5469,203.4375 276.7656,203.4375 Q277.1406,203.4375 277.375,203.6953 Q277.6094,203.9531 277.6094,204.5625 L277.6094,206.0156 Q277.6094,206.625 277.375,206.8906 Q277.1406,207.1563 276.7656,207.1563 Q276.4219,207.1563 276.2188,206.9531 Q276.0156,206.7656 275.9063,206.25 Q275.8594,205.8906 275.6719,205.7031 Q275.3438,205.3281 274.7344,205.1094 Q274.125,204.8906 273.5,204.8906 Q272.7344,204.8906 272.1016,205.2188 Q271.4688,205.5469 270.9766,206.2969 Q270.4844,207.0469 270.4844,208.0781 L270.4844,209.1719 Q270.4844,210.4063 271.375,211.2266 Q272.2656,212.0469 273.8594,212.0469 Q274.7969,212.0469 275.4531,211.7969 Q275.8438,211.6406 276.2656,211.2031 Q276.5313,210.9375 276.6797,210.8594 Q276.8281,210.7813 277.0313,210.7813 Q277.3594,210.7813 277.6172,211.0391 Q277.875,211.2969 277.875,211.6406 Q277.875,211.9844 277.5313,212.3906 Q277.0313,212.9688 276.2344,213.2969 Q275.1563,213.75 273.8594,213.75 Q272.3438,213.75 271.1406,213.125 Q270.1563,212.625 269.4688,211.5547 Q268.7813,210.4844 268.7813,209.2031 L268.7813,208.0469 Q268.7813,206.7188 269.3984,205.5703 Q270.0156,204.4219 271.1094,203.8047 Q272.2031,203.1875 273.4375,203.1875 Q274.1719,203.1875 274.8203,203.3516 Q275.4688,203.5156 276.0156,203.875 Z " fill="#000000"/><text fill="#000000" font-family="sans-serif" font-size="12" lengthAdjust="spacing" textLength="97" x="293.75" y="212.9102">JsonOutputVisitor</text><line style="stroke:#000000;stroke-width:1.5;" x1="228" x2="424" y1="224" y2="224"/><line style="stroke:#000000;stroke-width:1.5;" x1="228" x2="424" y1="232" y2="232"/><rect fill="#F24D5C" height="6" style="stroke:#C82930;stroke-width:1.0;" width="6" x="235" y="240"/><text fill="#000000" font-family="sans-serif" font-size="11" lengthAdjust="spacing" textLength="172" x="247" y="247.4189">String normalizedJSON(String input)</text><!--MD5=[6e1ef10867a4b940304d5408131154a2]
class OutputVisitorFactory--><rect codeLine="25" fill="#FFFFFF" filter="url(#fpkoso4dwavbl)" height="61.8359" id="OutputVisitorFactory" style="stroke:#000000;stroke-width:1.5;" width="226" x="32" y="56"/><ellipse cx="86.25" cy="72" fill="#ADD1B2" rx="11" ry="11" style="stroke:#000000;stroke-width:1.0;"/><path d="M89.0156,67.875 Q89.1719,67.6563 89.3594,67.5469 Q89.5469,67.4375 89.7656,67.4375 Q90.1406,67.4375 90.375,67.6953 Q90.6094,67.9531 90.6094,68.5625 L90.6094,70.0156 Q90.6094,70.625 90.375,70.8906 Q90.1406,71.1563 89.7656,71.1563 Q89.4219,71.1563 89.2188,70.9531 Q89.0156,70.7656 88.9063,70.25 Q88.8594,69.8906 88.6719,69.7031 Q88.3438,69.3281 87.7344,69.1094 Q87.125,68.8906 86.5,68.8906 Q85.7344,68.8906 85.1016,69.2188 Q84.4688,69.5469 83.9766,70.2969 Q83.4844,71.0469 83.4844,72.0781 L83.4844,73.1719 Q83.4844,74.4063 84.375,75.2266 Q85.2656,76.0469 86.8594,76.0469 Q87.7969,76.0469 88.4531,75.7969 Q88.8438,75.6406 89.2656,75.2031 Q89.5313,74.9375 89.6797,74.8594 Q89.8281,74.7813 90.0313,74.7813 Q90.3594,74.7813 90.6172,75.0391 Q90.875,75.2969 90.875,75.6406 Q90.875,75.9844 90.5313,76.3906 Q90.0313,76.9688 89.2344,77.2969 Q88.1563,77.75 86.8594,77.75 Q85.3438,77.75 84.1406,77.125 Q83.1563,76.625 82.4688,75.5547 Q81.7813,74.4844 81.7813,73.2031 L81.7813,72.0469 Q81.7813,70.7188 82.3984,69.5703 Q83.0156,68.4219 84.1094,67.8047 Q85.2031,67.1875 86.4375,67.1875 Q87.1719,67.1875 87.8203,67.3516 Q88.4688,67.5156 89.0156,67.875 Z " fill="#000000"/><text fill="#000000" font-family="sans-serif" font-size="12" lengthAdjust="spacing" textLength="109" x="106.75" y="76.9102">OutputVisitorFactory</text><line style="stroke:#000000;stroke-width:1.5;" x1="33" x2="257" y1="88" y2="88"/><line style="stroke:#000000;stroke-width:1.5;" x1="33" x2="257" y1="96" y2="96"/><text fill="#000000" font-family="sans-serif" font-size="11" lengthAdjust="spacing" text-decoration="underline" textLength="214" x="38" y="111.4189">iOutputVisitor produceVisitor(Format format)</text><!--MD5=[5708f49f43830b2d7f1e3ad43b443382]
class XmlOutputVisitor--><rect codeLine="29" fill="#FFFFFF" filter="url(#fpkoso4dwavbl)" height="61.8359" id="XmlOutputVisitor" style="stroke:#000000;stroke-width:1.5;" width="192" x="460" y="192"/><ellipse cx="506.25" cy="208" fill="#ADD1B2" rx="11" ry="11" style="stroke:#000000;stroke-width:1.0;"/><path d="M509.0156,203.875 Q509.1719,203.6563 509.3594,203.5469 Q509.5469,203.4375 509.7656,203.4375 Q510.1406,203.4375 510.375,203.6953 Q510.6094,203.9531 510.6094,204.5625 L510.6094,206.0156 Q510.6094,206.625 510.375,206.8906 Q510.1406,207.1563 509.7656,207.1563 Q509.4219,207.1563 509.2188,206.9531 Q509.0156,206.7656 508.9063,206.25 Q508.8594,205.8906 508.6719,205.7031 Q508.3438,205.3281 507.7344,205.1094 Q507.125,204.8906 506.5,204.8906 Q505.7344,204.8906 505.1016,205.2188 Q504.4688,205.5469 503.9766,206.2969 Q503.4844,207.0469 503.4844,208.0781 L503.4844,209.1719 Q503.4844,210.4063 504.375,211.2266 Q505.2656,212.0469 506.8594,212.0469 Q507.7969,212.0469 508.4531,211.7969 Q508.8438,211.6406 509.2656,211.2031 Q509.5313,210.9375 509.6797,210.8594 Q509.8281,210.7813 510.0313,210.7813 Q510.3594,210.7813 510.6172,211.0391 Q510.875,211.2969 510.875,211.6406 Q510.875,211.9844 510.5313,212.3906 Q510.0313,212.9688 509.2344,213.2969 Q508.1563,213.75 506.8594,213.75 Q505.3438,213.75 504.1406,213.125 Q503.1563,212.625 502.4688,211.5547 Q501.7813,210.4844 501.7813,209.2031 L501.7813,208.0469 Q501.7813,206.7188 502.3984,205.5703 Q503.0156,204.4219 504.1094,203.8047 Q505.2031,203.1875 506.4375,203.1875 Q507.1719,203.1875 507.8203,203.3516 Q508.4688,203.5156 509.0156,203.875 Z " fill="#000000"/><text fill="#000000" font-family="sans-serif" font-size="12" lengthAdjust="spacing" textLength="91" x="526.75" y="212.9102">XmlOutputVisitor</text><line style="stroke:#000000;stroke-width:1.5;" x1="461" x2="651" y1="224" y2="224"/><line style="stroke:#000000;stroke-width:1.5;" x1="461" x2="651" y1="232" y2="232"/><rect fill="#F24D5C" height="6" style="stroke:#C82930;stroke-width:1.0;" width="6" x="468" y="240"/><text fill="#000000" font-family="sans-serif" font-size="11" lengthAdjust="spacing" textLength="166" x="480" y="247.4189">String normalizedXML(String input)</text><!--MD5=[39d1b79f6bc8d6d0b4073405f4395516]
reverse link iOutputVisitor to JsonOutputVisitor--><path codeLine="35" d="M404.47,146.35 C388.22,162.01 371.31,178.32 357.37,191.76 " fill="none" id="iOutputVisitor-backto-JsonOutputVisitor" style="stroke:#000000;stroke-width:1.0;"/><polygon fill="none" points="399.84,141.09,419.1,132.25,409.56,151.17,399.84,141.09" style="stroke:#000000;stroke-width:1.0;"/><!--MD5=[8f236f4f9c9964e76a9313280df3e700]
reverse link iOutputVisitor to XmlOutputVisitor--><path codeLine="36" d="M506.58,149.23 C516.61,164 526.89,179.14 535.46,191.76 " fill="none" id="iOutputVisitor-backto-XmlOutputVisitor" style="stroke:#000000;stroke-width:1.0;"/><polygon fill="none" points="500.49,152.73,495.05,132.25,512.08,144.86,500.49,152.73" style="stroke:#000000;stroke-width:1.0;"/><!--MD5=[b345eab118b5caaeb75b1b1693a1b35b]
@startuml

skinparam class {
    ArrowColor black
    BorderColor black
    BackgroundColor white
    NoteBorderColor black
}

package main.java.output {
    enum Format {
        XML,
        JSON
    }

    interface iOutputVisitor{
        void addAttribute(String name, String value)
        void addChildren(ArrayList<Node> children, NodeType childrenType)
        String getParsedData()
    }

    class JsonOutputVisitor {
        -String normalizedJSON(String input)
    }

    class OutputVisitorFactory {
        {static} iOutputVisitor produceVisitor(Format format)
    }

    class XmlOutputVisitor {
        -String normalizedXML(String input)
    }
}


iOutputVisitor <|- - JsonOutputVisitor
iOutputVisitor <|- - XmlOutputVisitor


@enduml

PlantUML version 1.2022.0(Tue Jan 11 17:16:42 CET 2022)
(GPL source distribution)
Java Runtime: Java(TM) SE Runtime Environment
JVM: Java HotSpot(TM) 64-Bit Server VM
Default Encoding: Cp1252
Language: de
Country: DE
--></g></svg>