<?xml version="1.0" encoding="UTF-8" standalone="no"?><svg xmlns="http://www.w3.org/2000/svg" xmlns:xlink="http://www.w3.org/1999/xlink" contentScriptType="application/ecmascript" contentStyleType="text/css" height="127px" preserveAspectRatio="none" style="width:203px;height:127px;background:#FFFFFF;" version="1.1" viewBox="0 0 203 127" width="203px" zoomAndPan="magnify"><defs><filter height="300%" id="f16prpq42xr922" width="300%" x="-1" y="-1"><feGaussianBlur result="blurOut" stdDeviation="2.0"/><feColorMatrix in="blurOut" result="blurOut2" type="matrix" values="0 0 0 0 0 0 0 0 0 0 0 0 0 0 0 0 0 0 .4 0"/><feOffset dx="4.0" dy="4.0" in="blurOut2" result="blurOut3"/><feBlend in="SourceGraphic" in2="blurOut3" mode="normal"/></filter></defs><g><!--MD5=[ad0ae3c5bde9079b616e8acde3d6ab25]
cluster main.java--><polygon fill="#FFFFFF" filter="url(#f16prpq42xr922)" points="16,6,88,6,95,29.6094,186,29.6094,186,120,16,120,16,6" style="stroke:#000000;stroke-width:1.5;"/><line style="stroke:#000000;stroke-width:1.5;" x1="16" x2="95" y1="29.6094" y2="29.6094"/><text fill="#000000" font-family="sans-serif" font-size="14" font-weight="bold" lengthAdjust="spacing" textLength="66" x="20" y="22.5332">main.java</text><!--MD5=[84718776d214be480e4c259efcb737fc]
class Main--><rect codeLine="11" fill="#FFFFFF" filter="url(#f16prpq42xr922)" height="61.8359" id="Main" style="stroke:#000000;stroke-width:1.5;" width="138" x="32" y="42"/><ellipse cx="83.75" cy="58" fill="#ADD1B2" rx="11" ry="11" style="stroke:#000000;stroke-width:1.0;"/><path d="M86.5156,53.875 Q86.6719,53.6563 86.8594,53.5469 Q87.0469,53.4375 87.2656,53.4375 Q87.6406,53.4375 87.875,53.6953 Q88.1094,53.9531 88.1094,54.5625 L88.1094,56.0156 Q88.1094,56.625 87.875,56.8906 Q87.6406,57.1563 87.2656,57.1563 Q86.9219,57.1563 86.7188,56.9531 Q86.5156,56.7656 86.4063,56.25 Q86.3594,55.8906 86.1719,55.7031 Q85.8438,55.3281 85.2344,55.1094 Q84.625,54.8906 84,54.8906 Q83.2344,54.8906 82.6016,55.2188 Q81.9688,55.5469 81.4766,56.2969 Q80.9844,57.0469 80.9844,58.0781 L80.9844,59.1719 Q80.9844,60.4063 81.875,61.2266 Q82.7656,62.0469 84.3594,62.0469 Q85.2969,62.0469 85.9531,61.7969 Q86.3438,61.6406 86.7656,61.2031 Q87.0313,60.9375 87.1797,60.8594 Q87.3281,60.7813 87.5313,60.7813 Q87.8594,60.7813 88.1172,61.0391 Q88.375,61.2969 88.375,61.6406 Q88.375,61.9844 88.0313,62.3906 Q87.5313,62.9688 86.7344,63.2969 Q85.6563,63.75 84.3594,63.75 Q82.8438,63.75 81.6406,63.125 Q80.6563,62.625 79.9688,61.5547 Q79.2813,60.4844 79.2813,59.2031 L79.2813,58.0469 Q79.2813,56.7188 79.8984,55.5703 Q80.5156,54.4219 81.6094,53.8047 Q82.7031,53.1875 83.9375,53.1875 Q84.6719,53.1875 85.3203,53.3516 Q85.9688,53.5156 86.5156,53.875 Z " fill="#000000"/><text fill="#000000" font-family="sans-serif" font-size="12" lengthAdjust="spacing" textLength="26" x="104.25" y="62.9102">Main</text><line style="stroke:#000000;stroke-width:1.5;" x1="33" x2="169" y1="74" y2="74"/><line style="stroke:#000000;stroke-width:1.5;" x1="33" x2="169" y1="82" y2="82"/><ellipse cx="43" cy="93" fill="#84BE84" rx="3" ry="3" style="stroke:#038048;stroke-width:1.0;"/><text fill="#000000" font-family="sans-serif" font-size="11" lengthAdjust="spacing" text-decoration="underline" textLength="112" x="52" y="97.4189">void main(String[] argv)</text><!--MD5=[a628fa8a3a47a1e6b6ba51a18c493048]
@startuml

skinparam class {
    ArrowColor black
    BorderColor black
    BackgroundColor white
    NoteBorderColor black
}

package main.java {

    class Main {
        {static} +void main(String[] argv)
    }


}





@enduml

PlantUML version 1.2022.0(Tue Jan 11 17:16:42 CET 2022)
(GPL source distribution)
Java Runtime: Java(TM) SE Runtime Environment
JVM: Java HotSpot(TM) 64-Bit Server VM
Default Encoding: Cp1252
Language: de
Country: DE
--></g></svg>