<?xml version="1.0" encoding="UTF-8" standalone="no"?><svg xmlns="http://www.w3.org/2000/svg" xmlns:xlink="http://www.w3.org/1999/xlink" contentScriptType="application/ecmascript" contentStyleType="text/css" height="443px" preserveAspectRatio="none" style="width:1349px;height:443px;background:#FFFFFF;" version="1.1" viewBox="0 0 1349 443" width="1349px" zoomAndPan="magnify"><defs><filter height="300%" id="f1ethg2dfxb464" width="300%" x="-1" y="-1"><feGaussianBlur result="blurOut" stdDeviation="2.0"/><feColorMatrix in="blurOut" result="blurOut2" type="matrix" values="0 0 0 0 0 0 0 0 0 0 0 0 0 0 0 0 0 0 .4 0"/><feOffset dx="4.0" dy="4.0" in="blurOut2" result="blurOut3"/><feBlend in="SourceGraphic" in2="blurOut3" mode="normal"/></filter></defs><g><!--MD5=[0ee65b51762ef45f820f425b0c3109d3]
cluster main.java.input--><polygon fill="#FFFFFF" filter="url(#f1ethg2dfxb464)" points="16,6,128,6,135,29.6094,1332,29.6094,1332,436,16,436,16,6" style="stroke:#000000;stroke-width:1.5;"/><line style="stroke:#000000;stroke-width:1.5;" x1="16" x2="135" y1="29.6094" y2="29.6094"/><text fill="#000000" font-family="sans-serif" font-size="14" font-weight="bold" lengthAdjust="spacing" textLength="106" x="20" y="22.5332">main.java.input</text><!--MD5=[a3b82847d9914768e0ae37ae381e72ac]
class AggregateArgValidator--><rect codeLine="10" fill="#FFFFFF" filter="url(#f1ethg2dfxb464)" height="61.8359" id="AggregateArgValidator" style="stroke:#000000;stroke-width:1.5;" width="162" x="53" y="97.5"/><ellipse cx="71.6" cy="113.5" fill="#ADD1B2" rx="11" ry="11" style="stroke:#000000;stroke-width:1.0;"/><path d="M74.3656,109.375 Q74.5219,109.1563 74.7094,109.0469 Q74.8969,108.9375 75.1156,108.9375 Q75.4906,108.9375 75.725,109.1953 Q75.9594,109.4531 75.9594,110.0625 L75.9594,111.5156 Q75.9594,112.125 75.725,112.3906 Q75.4906,112.6563 75.1156,112.6563 Q74.7719,112.6563 74.5688,112.4531 Q74.3656,112.2656 74.2563,111.75 Q74.2094,111.3906 74.0219,111.2031 Q73.6938,110.8281 73.0844,110.6094 Q72.475,110.3906 71.85,110.3906 Q71.0844,110.3906 70.4516,110.7188 Q69.8188,111.0469 69.3266,111.7969 Q68.8344,112.5469 68.8344,113.5781 L68.8344,114.6719 Q68.8344,115.9063 69.725,116.7266 Q70.6156,117.5469 72.2094,117.5469 Q73.1469,117.5469 73.8031,117.2969 Q74.1938,117.1406 74.6156,116.7031 Q74.8813,116.4375 75.0297,116.3594 Q75.1781,116.2813 75.3813,116.2813 Q75.7094,116.2813 75.9672,116.5391 Q76.225,116.7969 76.225,117.1406 Q76.225,117.4844 75.8813,117.8906 Q75.3813,118.4688 74.5844,118.7969 Q73.5063,119.25 72.2094,119.25 Q70.6938,119.25 69.4906,118.625 Q68.5063,118.125 67.8188,117.0547 Q67.1313,115.9844 67.1313,114.7031 L67.1313,113.5469 Q67.1313,112.2188 67.7484,111.0703 Q68.3656,109.9219 69.4594,109.3047 Q70.5531,108.6875 71.7875,108.6875 Q72.5219,108.6875 73.1703,108.8516 Q73.8188,109.0156 74.3656,109.375 Z " fill="#000000"/><text fill="#000000" font-family="sans-serif" font-size="12" lengthAdjust="spacing" textLength="122" x="86.4" y="118.4102">AggregateArgValidator</text><line style="stroke:#000000;stroke-width:1.5;" x1="54" x2="214" y1="129.5" y2="129.5"/><text fill="#000000" font-family="sans-serif" font-size="11" lengthAdjust="spacing" textLength="150" x="59" y="144.9189">implements IParameterValidator</text><line style="stroke:#000000;stroke-width:1.5;" x1="54" x2="214" y1="151.3359" y2="151.3359"/><!--MD5=[1d433009b9e7c9402ecaacadc23b489b]
class CliArgs--><rect codeLine="14" fill="#FFFFFF" filter="url(#f1ethg2dfxb464)" height="172.5234" id="CliArgs" style="stroke:#000000;stroke-width:1.5;" width="187" x="250.5" y="42"/><ellipse cx="319.75" cy="58" fill="#ADD1B2" rx="11" ry="11" style="stroke:#000000;stroke-width:1.0;"/><path d="M322.5156,53.875 Q322.6719,53.6563 322.8594,53.5469 Q323.0469,53.4375 323.2656,53.4375 Q323.6406,53.4375 323.875,53.6953 Q324.1094,53.9531 324.1094,54.5625 L324.1094,56.0156 Q324.1094,56.625 323.875,56.8906 Q323.6406,57.1563 323.2656,57.1563 Q322.9219,57.1563 322.7188,56.9531 Q322.5156,56.7656 322.4063,56.25 Q322.3594,55.8906 322.1719,55.7031 Q321.8438,55.3281 321.2344,55.1094 Q320.625,54.8906 320,54.8906 Q319.2344,54.8906 318.6016,55.2188 Q317.9688,55.5469 317.4766,56.2969 Q316.9844,57.0469 316.9844,58.0781 L316.9844,59.1719 Q316.9844,60.4063 317.875,61.2266 Q318.7656,62.0469 320.3594,62.0469 Q321.2969,62.0469 321.9531,61.7969 Q322.3438,61.6406 322.7656,61.2031 Q323.0313,60.9375 323.1797,60.8594 Q323.3281,60.7813 323.5313,60.7813 Q323.8594,60.7813 324.1172,61.0391 Q324.375,61.2969 324.375,61.6406 Q324.375,61.9844 324.0313,62.3906 Q323.5313,62.9688 322.7344,63.2969 Q321.6563,63.75 320.3594,63.75 Q318.8438,63.75 317.6406,63.125 Q316.6563,62.625 315.9688,61.5547 Q315.2813,60.4844 315.2813,59.2031 L315.2813,58.0469 Q315.2813,56.7188 315.8984,55.5703 Q316.5156,54.4219 317.6094,53.8047 Q318.7031,53.1875 319.9375,53.1875 Q320.6719,53.1875 321.3203,53.3516 Q321.9688,53.5156 322.5156,53.875 Z " fill="#000000"/><text fill="#000000" font-family="sans-serif" font-size="12" lengthAdjust="spacing" textLength="40" x="340.25" y="62.9102">CliArgs</text><line style="stroke:#000000;stroke-width:1.5;" x1="251.5" x2="436.5" y1="74" y2="74"/><rect fill="none" height="6" style="stroke:#C82930;stroke-width:1.0;" width="6" x="258.5" y="82"/><text fill="#000000" font-family="sans-serif" font-size="11" lengthAdjust="spacing" textLength="82" x="270.5" y="89.4189">String outputPath</text><rect fill="none" height="6" style="stroke:#C82930;stroke-width:1.0;" width="6" x="258.5" y="95.8359"/><text fill="#000000" font-family="sans-serif" font-size="11" lengthAdjust="spacing" textLength="80" x="270.5" y="103.2549">String aggregate</text><rect fill="none" height="6" style="stroke:#C82930;stroke-width:1.0;" width="6" x="258.5" y="109.6719"/><text fill="#000000" font-family="sans-serif" font-size="11" lengthAdjust="spacing" textLength="94" x="270.5" y="117.0908">String outputFormat</text><rect fill="none" height="6" style="stroke:#C82930;stroke-width:1.0;" width="6" x="258.5" y="123.5078"/><text fill="#000000" font-family="sans-serif" font-size="11" lengthAdjust="spacing" textLength="87" x="270.5" y="130.9268">String inputFormat</text><line style="stroke:#000000;stroke-width:1.5;" x1="251.5" x2="436.5" y1="137.3438" y2="137.3438"/><ellipse cx="261.5" cy="148.3438" fill="#84BE84" rx="3" ry="3" style="stroke:#038048;stroke-width:1.0;"/><text fill="#000000" font-family="sans-serif" font-size="11" lengthAdjust="spacing" text-decoration="underline" textLength="161" x="270.5" y="152.7627">CliArgs getInstance(String[] argv)</text><ellipse cx="261.5" cy="162.1797" fill="#84BE84" rx="3" ry="3" style="stroke:#038048;stroke-width:1.0;"/><text fill="#000000" font-family="sans-serif" font-size="11" lengthAdjust="spacing" textLength="128" x="270.5" y="166.5986">Aggregate getAggregate()</text><ellipse cx="261.5" cy="176.0156" fill="#84BE84" rx="3" ry="3" style="stroke:#038048;stroke-width:1.0;"/><text fill="#000000" font-family="sans-serif" font-size="11" lengthAdjust="spacing" textLength="107" x="270.5" y="180.4346">String getOutputPath()</text><ellipse cx="261.5" cy="189.8516" fill="#84BE84" rx="3" ry="3" style="stroke:#038048;stroke-width:1.0;"/><text fill="#000000" font-family="sans-serif" font-size="11" lengthAdjust="spacing" textLength="124" x="270.5" y="194.2705">Format getOutputFormat()</text><ellipse cx="261.5" cy="203.6875" fill="#84BE84" rx="3" ry="3" style="stroke:#038048;stroke-width:1.0;"/><text fill="#000000" font-family="sans-serif" font-size="11" lengthAdjust="spacing" textLength="98" x="270.5" y="208.1064">String getInputPath()</text><!--MD5=[ab582a1f3603462535ae2385ea187536]
class FormatArgValidator--><rect codeLine="27" fill="#FFFFFF" filter="url(#f1ethg2dfxb464)" height="61.8359" id="FormatArgValidator" style="stroke:#000000;stroke-width:1.5;" width="162" x="473" y="97.5"/><ellipse cx="499.25" cy="113.5" fill="#ADD1B2" rx="11" ry="11" style="stroke:#000000;stroke-width:1.0;"/><path d="M502.0156,109.375 Q502.1719,109.1563 502.3594,109.0469 Q502.5469,108.9375 502.7656,108.9375 Q503.1406,108.9375 503.375,109.1953 Q503.6094,109.4531 503.6094,110.0625 L503.6094,111.5156 Q503.6094,112.125 503.375,112.3906 Q503.1406,112.6563 502.7656,112.6563 Q502.4219,112.6563 502.2188,112.4531 Q502.0156,112.2656 501.9063,111.75 Q501.8594,111.3906 501.6719,111.2031 Q501.3438,110.8281 500.7344,110.6094 Q500.125,110.3906 499.5,110.3906 Q498.7344,110.3906 498.1016,110.7188 Q497.4688,111.0469 496.9766,111.7969 Q496.4844,112.5469 496.4844,113.5781 L496.4844,114.6719 Q496.4844,115.9063 497.375,116.7266 Q498.2656,117.5469 499.8594,117.5469 Q500.7969,117.5469 501.4531,117.2969 Q501.8438,117.1406 502.2656,116.7031 Q502.5313,116.4375 502.6797,116.3594 Q502.8281,116.2813 503.0313,116.2813 Q503.3594,116.2813 503.6172,116.5391 Q503.875,116.7969 503.875,117.1406 Q503.875,117.4844 503.5313,117.8906 Q503.0313,118.4688 502.2344,118.7969 Q501.1563,119.25 499.8594,119.25 Q498.3438,119.25 497.1406,118.625 Q496.1563,118.125 495.4688,117.0547 Q494.7813,115.9844 494.7813,114.7031 L494.7813,113.5469 Q494.7813,112.2188 495.3984,111.0703 Q496.0156,109.9219 497.1094,109.3047 Q498.2031,108.6875 499.4375,108.6875 Q500.1719,108.6875 500.8203,108.8516 Q501.4688,109.0156 502.0156,109.375 Z " fill="#000000"/><text fill="#000000" font-family="sans-serif" font-size="12" lengthAdjust="spacing" textLength="105" x="515.75" y="118.4102">FormatArgValidator</text><line style="stroke:#000000;stroke-width:1.5;" x1="474" x2="634" y1="129.5" y2="129.5"/><text fill="#000000" font-family="sans-serif" font-size="11" lengthAdjust="spacing" textLength="150" x="479" y="144.9189">implements IParameterValidator</text><line style="stroke:#000000;stroke-width:1.5;" x1="474" x2="634" y1="151.3359" y2="151.3359"/><!--MD5=[f7baa1082940d3ce43d405e81b39ac4c]
class InputChannel--><rect codeLine="31" fill="#FFFFFF" filter="url(#f1ethg2dfxb464)" height="89.5078" id="InputChannel" style="stroke:#000000;stroke-width:1.5;" width="204" x="32" y="302.5"/><ellipse cx="92.75" cy="318.5" fill="#ADD1B2" rx="11" ry="11" style="stroke:#000000;stroke-width:1.0;"/><path d="M95.5156,314.375 Q95.6719,314.1563 95.8594,314.0469 Q96.0469,313.9375 96.2656,313.9375 Q96.6406,313.9375 96.875,314.1953 Q97.1094,314.4531 97.1094,315.0625 L97.1094,316.5156 Q97.1094,317.125 96.875,317.3906 Q96.6406,317.6563 96.2656,317.6563 Q95.9219,317.6563 95.7188,317.4531 Q95.5156,317.2656 95.4063,316.75 Q95.3594,316.3906 95.1719,316.2031 Q94.8438,315.8281 94.2344,315.6094 Q93.625,315.3906 93,315.3906 Q92.2344,315.3906 91.6016,315.7188 Q90.9688,316.0469 90.4766,316.7969 Q89.9844,317.5469 89.9844,318.5781 L89.9844,319.6719 Q89.9844,320.9063 90.875,321.7266 Q91.7656,322.5469 93.3594,322.5469 Q94.2969,322.5469 94.9531,322.2969 Q95.3438,322.1406 95.7656,321.7031 Q96.0313,321.4375 96.1797,321.3594 Q96.3281,321.2813 96.5313,321.2813 Q96.8594,321.2813 97.1172,321.5391 Q97.375,321.7969 97.375,322.1406 Q97.375,322.4844 97.0313,322.8906 Q96.5313,323.4688 95.7344,323.7969 Q94.6563,324.25 93.3594,324.25 Q91.8438,324.25 90.6406,323.625 Q89.6563,323.125 88.9688,322.0547 Q88.2813,320.9844 88.2813,319.7031 L88.2813,318.5469 Q88.2813,317.2188 88.8984,316.0703 Q89.5156,314.9219 90.6094,314.3047 Q91.7031,313.6875 92.9375,313.6875 Q93.6719,313.6875 94.3203,313.8516 Q94.9688,314.0156 95.5156,314.375 Z " fill="#000000"/><text fill="#000000" font-family="sans-serif" font-size="12" lengthAdjust="spacing" textLength="74" x="113.25" y="323.4102">InputChannel</text><line style="stroke:#000000;stroke-width:1.5;" x1="33" x2="235" y1="334.5" y2="334.5"/><ellipse cx="43" cy="345.5" rx="3" ry="3" style="stroke:#038048;stroke-width:1.0;fill:none;"/><text fill="#000000" font-family="sans-serif" font-size="11" lengthAdjust="spacing" textLength="45" x="52" y="349.9189">String sid</text><ellipse cx="43" cy="359.3359" rx="3" ry="3" style="stroke:#038048;stroke-width:1.0;fill:none;"/><text fill="#000000" font-family="sans-serif" font-size="11" lengthAdjust="spacing" textLength="57" x="52" y="363.7549">String name</text><line style="stroke:#000000;stroke-width:1.5;" x1="33" x2="235" y1="370.1719" y2="370.1719"/><ellipse cx="43" cy="381.1719" fill="#84BE84" rx="3" ry="3" style="stroke:#038048;stroke-width:1.0;"/><text fill="#000000" font-family="sans-serif" font-size="11" lengthAdjust="spacing" text-decoration="underline" textLength="178" x="52" y="385.5908">InputChannel(String sid, String name)</text><!--MD5=[840e61a8de1edd5c7a7c4404797c4ad2]
class InputHandler--><rect codeLine="38" fill="#FFFFFF" filter="url(#f1ethg2dfxb464)" height="75.6719" id="InputHandler" style="stroke:#000000;stroke-width:1.5;" width="442" x="271" y="309.5"/><ellipse cx="452.25" cy="325.5" fill="#ADD1B2" rx="11" ry="11" style="stroke:#000000;stroke-width:1.0;"/><path d="M455.0156,321.375 Q455.1719,321.1563 455.3594,321.0469 Q455.5469,320.9375 455.7656,320.9375 Q456.1406,320.9375 456.375,321.1953 Q456.6094,321.4531 456.6094,322.0625 L456.6094,323.5156 Q456.6094,324.125 456.375,324.3906 Q456.1406,324.6563 455.7656,324.6563 Q455.4219,324.6563 455.2188,324.4531 Q455.0156,324.2656 454.9063,323.75 Q454.8594,323.3906 454.6719,323.2031 Q454.3438,322.8281 453.7344,322.6094 Q453.125,322.3906 452.5,322.3906 Q451.7344,322.3906 451.1016,322.7188 Q450.4688,323.0469 449.9766,323.7969 Q449.4844,324.5469 449.4844,325.5781 L449.4844,326.6719 Q449.4844,327.9063 450.375,328.7266 Q451.2656,329.5469 452.8594,329.5469 Q453.7969,329.5469 454.4531,329.2969 Q454.8438,329.1406 455.2656,328.7031 Q455.5313,328.4375 455.6797,328.3594 Q455.8281,328.2813 456.0313,328.2813 Q456.3594,328.2813 456.6172,328.5391 Q456.875,328.7969 456.875,329.1406 Q456.875,329.4844 456.5313,329.8906 Q456.0313,330.4688 455.2344,330.7969 Q454.1563,331.25 452.8594,331.25 Q451.3438,331.25 450.1406,330.625 Q449.1563,330.125 448.4688,329.0547 Q447.7813,327.9844 447.7813,326.7031 L447.7813,325.5469 Q447.7813,324.2188 448.3984,323.0703 Q449.0156,321.9219 450.1094,321.3047 Q451.2031,320.6875 452.4375,320.6875 Q453.1719,320.6875 453.8203,320.8516 Q454.4688,321.0156 455.0156,321.375 Z " fill="#000000"/><text fill="#000000" font-family="sans-serif" font-size="12" lengthAdjust="spacing" textLength="71" x="472.75" y="330.4102">InputHandler</text><line style="stroke:#000000;stroke-width:1.5;" x1="272" x2="712" y1="341.5" y2="341.5"/><line style="stroke:#000000;stroke-width:1.5;" x1="272" x2="712" y1="349.5" y2="349.5"/><ellipse cx="282" cy="360.5" fill="#84BE84" rx="3" ry="3" style="stroke:#038048;stroke-width:1.0;"/><text fill="#000000" font-family="sans-serif" font-size="11" lengthAdjust="spacing" text-decoration="underline" textLength="192" x="291" y="364.9189">Node parseJsonToTree(String filename)</text><polygon fill="#FFFF44" points="282,369.3359,286,373.3359,282,377.3359,278,373.3359" style="stroke:#B38D22;stroke-width:1.0;"/><text fill="#000000" font-family="sans-serif" font-size="11" lengthAdjust="spacing" text-decoration="underline" textLength="416" x="291" y="378.7549">ArrayList&lt;Node&gt; getSatellitesFromInputFormat(InputTransponder[] inputTransponders)</text><!--MD5=[0fb5984cc52128ab119be39dc8ce67c4]
class InputTransponder--><rect codeLine="43" fill="#FFFFFF" filter="url(#f1ethg2dfxb464)" height="144.8516" id="InputTransponder" style="stroke:#000000;stroke-width:1.5;" width="568" x="748" y="275"/><ellipse cx="978.75" cy="291" fill="#ADD1B2" rx="11" ry="11" style="stroke:#000000;stroke-width:1.0;"/><path d="M981.5156,286.875 Q981.6719,286.6563 981.8594,286.5469 Q982.0469,286.4375 982.2656,286.4375 Q982.6406,286.4375 982.875,286.6953 Q983.1094,286.9531 983.1094,287.5625 L983.1094,289.0156 Q983.1094,289.625 982.875,289.8906 Q982.6406,290.1563 982.2656,290.1563 Q981.9219,290.1563 981.7188,289.9531 Q981.5156,289.7656 981.4063,289.25 Q981.3594,288.8906 981.1719,288.7031 Q980.8438,288.3281 980.2344,288.1094 Q979.625,287.8906 979,287.8906 Q978.2344,287.8906 977.6016,288.2188 Q976.9688,288.5469 976.4766,289.2969 Q975.9844,290.0469 975.9844,291.0781 L975.9844,292.1719 Q975.9844,293.4063 976.875,294.2266 Q977.7656,295.0469 979.3594,295.0469 Q980.2969,295.0469 980.9531,294.7969 Q981.3438,294.6406 981.7656,294.2031 Q982.0313,293.9375 982.1797,293.8594 Q982.3281,293.7813 982.5313,293.7813 Q982.8594,293.7813 983.1172,294.0391 Q983.375,294.2969 983.375,294.6406 Q983.375,294.9844 983.0313,295.3906 Q982.5313,295.9688 981.7344,296.2969 Q980.6563,296.75 979.3594,296.75 Q977.8438,296.75 976.6406,296.125 Q975.6563,295.625 974.9688,294.5547 Q974.2813,293.4844 974.2813,292.2031 L974.2813,291.0469 Q974.2813,289.7188 974.8984,288.5703 Q975.5156,287.4219 976.6094,286.8047 Q977.7031,286.1875 978.9375,286.1875 Q979.6719,286.1875 980.3203,286.3516 Q980.9688,286.5156 981.5156,286.875 Z " fill="#000000"/><text fill="#000000" font-family="sans-serif" font-size="12" lengthAdjust="spacing" textLength="98" x="999.25" y="295.9102">InputTransponder</text><line style="stroke:#000000;stroke-width:1.5;" x1="749" x2="1315" y1="307" y2="307"/><ellipse cx="759" cy="318" rx="3" ry="3" style="stroke:#038048;stroke-width:1.0;fill:none;"/><text fill="#000000" font-family="sans-serif" font-size="11" lengthAdjust="spacing" textLength="46" x="768" y="322.4189">String sat</text><ellipse cx="759" cy="331.8359" rx="3" ry="3" style="stroke:#038048;stroke-width:1.0;fill:none;"/><text fill="#000000" font-family="sans-serif" font-size="11" lengthAdjust="spacing" textLength="60" x="768" y="336.2549">String orbital</text><ellipse cx="759" cy="345.6719" rx="3" ry="3" style="stroke:#038048;stroke-width:1.0;fill:none;"/><text fill="#000000" font-family="sans-serif" font-size="11" lengthAdjust="spacing" textLength="45" x="768" y="350.0908">String pol</text><ellipse cx="759" cy="359.5078" rx="3" ry="3" style="stroke:#038048;stroke-width:1.0;fill:none;"/><text fill="#000000" font-family="sans-serif" font-size="11" lengthAdjust="spacing" textLength="51" x="768" y="363.9268">String freq</text><ellipse cx="759" cy="373.3438" rx="3" ry="3" style="stroke:#038048;stroke-width:1.0;fill:none;"/><text fill="#000000" font-family="sans-serif" font-size="11" lengthAdjust="spacing" textLength="51" x="768" y="377.7627">String sym</text><ellipse cx="759" cy="387.1797" rx="3" ry="3" style="stroke:#038048;stroke-width:1.0;fill:none;"/><text fill="#000000" font-family="sans-serif" font-size="11" lengthAdjust="spacing" textLength="166" x="768" y="391.5986">ArrayList&lt;InputChannel&gt; channels</text><line style="stroke:#000000;stroke-width:1.5;" x1="749" x2="1315" y1="398.0156" y2="398.0156"/><ellipse cx="759" cy="409.0156" fill="#84BE84" rx="3" ry="3" style="stroke:#038048;stroke-width:1.0;"/><text fill="#000000" font-family="sans-serif" font-size="11" lengthAdjust="spacing" text-decoration="underline" textLength="542" x="768" y="413.4346">InputTransponder(String sat, String orbital, String pol, String freq, String sym, ArrayList&lt;InputChannel&gt; channels)</text><!--MD5=[478f0e65e97bae502f5fcc10f1418c99]
link AggregateArgValidator to CliArgs--><!--MD5=[a23f431fa48f21dc3fdfc64cf693341c]
link CliArgs to FormatArgValidator--><!--MD5=[0c4197da497a883c4aa117d02b75de53]
link AggregateArgValidator to InputChannel--><!--MD5=[67187b3fa789ec40ca2f73f9fee1477f]
link InputChannel to InputHandler--><!--MD5=[d97ccd7c8cc341e12919358346bd1c1b]
link InputHandler to InputTransponder--><!--MD5=[6c22d0f86f3f12ec22a10565a5d058d7]
@startuml

skinparam class {
    ArrowColor black
    BorderColor black
    BackgroundColor white
    NoteBorderColor black
}

package main.java.input {
    class AggregateArgValidator {
        implements IParameterValidator
    }

    class CliArgs {
        -String outputPath
        -String aggregate
        -String outputFormat
        -String inputFormat

        {static} +CliArgs getInstance(String[] argv)
        +Aggregate getAggregate()
        +String getOutputPath()
        +Format getOutputFormat()
        +String getInputPath()
    }

    class FormatArgValidator {
        implements IParameterValidator
    }

    class InputChannel {
        +String sid
        +String name

        {static} +InputChannel(String sid, String name)
    }

    class InputHandler {
        {static} +Node parseJsonToTree(String filename)
        {static} #ArrayList<Node> getSatellitesFromInputFormat(InputTransponder[] inputTransponders) 
    }   

    class InputTransponder {
        +String sat
        +String orbital
        +String pol
        +String freq
        +String sym
        +ArrayList<InputChannel> channels

        {static} +InputTransponder(String sat, String orbital, String pol, String freq, String sym, ArrayList<InputChannel> channels)
    }
}


@enduml

PlantUML version 1.2022.0(Tue Jan 11 17:16:42 CET 2022)
(GPL source distribution)
Java Runtime: Java(TM) SE Runtime Environment
JVM: Java HotSpot(TM) 64-Bit Server VM
Default Encoding: Cp1252
Language: de
Country: DE
--></g></svg>